<svg xmlns="http://www.w3.org/2000/svg" version="1.1" xmlns:xlink="http://www.w3.org/1999/xlink" xmlns:svgjs="http://svgjs.dev/svgjs" width="1440" height="560" preserveAspectRatio="none" viewBox="0 0 1440 560"><g mask="url(&quot;#SvgjsMask1472&quot;)" fill="none"><rect width="1440" height="560" x="0" y="0" fill="url(&quot;#SvgjsLinearGradient1473&quot;)"></rect><path d="M0 0L446.72 0L0 107.81z" fill="rgba(255, 255, 255, .1)"></path><path d="M0 107.81L446.72 0L746.4300000000001 0L0 324.69z" fill="rgba(255, 255, 255, .075)"></path><path d="M0 324.69L746.4300000000001 0L1048.1000000000001 0L0 330.63z" fill="rgba(255, 255, 255, .05)"></path><path d="M0 330.63L1048.1000000000001 0L1267.3300000000002 0L0 471.28999999999996z" fill="rgba(255, 255, 255, .025)"></path><path d="M1440 560L1296.74 560L1440 474.05z" fill="rgba(0, 0, 0, .1)"></path><path d="M1440 474.05L1296.74 560L729.78 560L1440 255.87z" fill="rgba(0, 0, 0, .075)"></path><path d="M1440 255.87L729.78 560L333.92999999999995 560L1440 249.63z" fill="rgba(0, 0, 0, .05)"></path><path d="M1440 249.63L333.92999999999984 560L226.78999999999985 560L1440 155.11z" fill="rgba(0, 0, 0, .025)"></path></g><defs><mask id="SvgjsMask1472"><rect width="1440" height="560" fill="#ffffff"></rect></mask><linearGradient x1="15.28%" y1="-39.29%" x2="84.72%" y2="139.29%" gradientUnits="userSpaceOnUse" id="SvgjsLinearGradient1473"><stop stop-color="#0e2a47" offset="0"></stop><stop stop-color="rgba(0, 0, 0, 0.43)" offset="1"></stop></linearGradient></defs></svg>